<svg xmlns="http://www.w3.org/2000/svg" xmlns:xlink="http://www.w3.org/1999/xlink" width="71.106" height="15.542" viewBox="0 0 71.106 15.542">
  <defs>
    <clipPath id="clip-path">
      <rect width="71.106" height="15.542" fill="none"/>
    </clipPath>
  </defs>
  <g id="Repeat_Grid_1" data-name="Repeat Grid 1" clip-path="url(#clip-path)">
    <g transform="translate(-1593 -541)">
      <path id="star_1_" data-name="star (1)" d="M8.792,1.528,10.6,5.193a.863.863,0,0,0,.65.472l4.044.588a.863.863,0,0,1,.479,1.473l-2.926,2.852a.864.864,0,0,0-.248.764l.691,4.028a.864.864,0,0,1-1.253.91l-3.617-1.9a.864.864,0,0,0-.8,0L4,16.28a.864.864,0,0,1-1.253-.91l.691-4.028a.864.864,0,0,0-.248-.764L.262,7.725A.863.863,0,0,1,.741,6.253l4.044-.588a.863.863,0,0,0,.65-.472L7.244,1.528A.863.863,0,0,1,8.792,1.528Z" transform="translate(1593 539.953)" fill="#fcc537"/>
    </g>
    <g transform="translate(-1575 -541)">
      <path id="star_1_2" data-name="star (1)" d="M8.792,1.528,10.6,5.193a.863.863,0,0,0,.65.472l4.044.588a.863.863,0,0,1,.479,1.473l-2.926,2.852a.864.864,0,0,0-.248.764l.691,4.028a.864.864,0,0,1-1.253.91l-3.617-1.9a.864.864,0,0,0-.8,0L4,16.28a.864.864,0,0,1-1.253-.91l.691-4.028a.864.864,0,0,0-.248-.764L.262,7.725A.863.863,0,0,1,.741,6.253l4.044-.588a.863.863,0,0,0,.65-.472L7.244,1.528A.863.863,0,0,1,8.792,1.528Z" transform="translate(1593 539.953)" fill="#fcc537"/>
    </g>
    <g transform="translate(-1557 -541)">
      <path id="star_1_3" data-name="star (1)" d="M8.792,1.528,10.6,5.193a.863.863,0,0,0,.65.472l4.044.588a.863.863,0,0,1,.479,1.473l-2.926,2.852a.864.864,0,0,0-.248.764l.691,4.028a.864.864,0,0,1-1.253.91l-3.617-1.9a.864.864,0,0,0-.8,0L4,16.28a.864.864,0,0,1-1.253-.91l.691-4.028a.864.864,0,0,0-.248-.764L.262,7.725A.863.863,0,0,1,.741,6.253l4.044-.588a.863.863,0,0,0,.65-.472L7.244,1.528A.863.863,0,0,1,8.792,1.528Z" transform="translate(1593 539.953)" fill="#fcc537"/>
    </g>
    <g transform="translate(-1539 -541)">
      <path id="star_1_4" data-name="star (1)" d="M8.792,1.528,10.6,5.193a.863.863,0,0,0,.65.472l4.044.588a.863.863,0,0,1,.479,1.473l-2.926,2.852a.864.864,0,0,0-.248.764l.691,4.028a.864.864,0,0,1-1.253.91l-3.617-1.9a.864.864,0,0,0-.8,0L4,16.28a.864.864,0,0,1-1.253-.91l.691-4.028a.864.864,0,0,0-.248-.764L.262,7.725A.863.863,0,0,1,.741,6.253l4.044-.588a.863.863,0,0,0,.65-.472L7.244,1.528A.863.863,0,0,1,8.792,1.528Z" transform="translate(1593 539.953)" fill="#fcc537"/>
    </g>
  </g>
</svg>
